@startuml

    namespace sg.edu.ntu.scse.cz2002.features {

        class OrderItem [[../sg/edu/ntu/scse/cz2002/features/OrderItem.html]] {
            -itemId: int
            -quantity: int
            -itemTotal: double
            +OrderItem(otherData:String[])
            +OrderItem(itemId:int, quantity:int, itemType:OrderItem.OrderItemType)
            +toCompiledString(): String
            -getPromo(): PromotionItem
            -getMenuItem(): MenuItem
            +getItem(): RestaurantItem
            +getQuantity(): int
            +setQuantity(quantity:int): void
            +isPromotion(): boolean
            +getItemTotal(): double
            +calculateTotal(): void
        }

        enum sg.edu.ntu.scse.cz2002.features.OrderItem.OrderItemType [[../sg/edu/ntu/scse/cz2002/features/OrderItem.OrderItemType.html]] {
            {static} +TYPE_MENU
            {static} +TYPE_PROMO
        }

        class Reservation [[../sg/edu/ntu/scse/cz2002/features/Reservation.html]] {
            -resvId: int
            -resvDate: LocalDate
            -resvTime: LocalTime
            -custTelNo: String
            -custName: String
            -numPax: int
            -tableNum: int
            +Reservation(id:int, rd:LocalDate, rt:LocalTime, sess:char, telNo:String, name:String, pax:int, t:int)
            +Reservation(csv:String[])
            +toCsv(): String[]
            +getResvId(): int
            +setResvId(resvId:int): void
            +getResvDate(): LocalDate
            +setResvDate(resvDate:LocalDate): void
            +getResvTime(): LocalTime
            +setResvTime(resvTime:LocalTime): void
            +getNumPax(): int
            +setNumPax(numPax:int): void
            +getCustName(): String
            +setCustName(custName:String): void
            +getCustTelNo(): String
            +setCustTelNo(custTelNo:String): void
            +getTableNum(): int
            +setTableNum(tableNum:int): void
            {static} +hasReservation(telNo:String): Table
            {static} +getTablesBookedOnDateBySession(resvDate:LocalDate, resvSession:char): ArrayList<Table>
            {static} +removeReservationFromList(telNo:String): void
            {static} +removeReservationFromList(r:Reservation): void
            {static} +removeReservationFromList(telNo:String, resvId:int): void
        }

        enum sg.edu.ntu.scse.cz2002.features.Reservation.ReservationSession [[../sg/edu/ntu/scse/cz2002/features/Reservation.ReservationSession.html]] {
            {static} +AM_SESSION
            {static} +PM_SESSION
        }

        class Order [[../sg/edu/ntu/scse/cz2002/features/Order.html]] {
            -orderID: int
            -orderItems: ArrayList<OrderItem>
            -subtotal: double
            -createdAt: long
            -completedAt: long
            -staffId: int
            -tableId: int
            +Order(orderID:int)
            #Order(o:Order)
            +Order(csv:String[])
            +toCsv(): String[]
            +getOrderID(): int
            +getOrderItems(): ArrayList<OrderItem>
            +setOrderItems(orderItems:ArrayList<OrderItem>): void
            +getSubtotal(): double
            +calculateSubtotal(): void
            +markPaid(): void
            +getCreatedAt(): long
            +getCompletedAt(): long
            +getStaffId(): int
            +setStaffId(staff:int): void
            +getTableId(): int
            +setTableId(table:int): void
            +getStaff(): Staff
        }

        enum sg.edu.ntu.scse.cz2002.features.Order.OrderState [[../sg/edu/ntu/scse/cz2002/features/Order.OrderState.html]] {
            {static} +ORDER_PAID
            {static} +ORDER_UNPAID
        }

        class Invoice [[../sg/edu/ntu/scse/cz2002/features/Invoice.html]] {
            -receipt: String
            -total: double
            -amountPaid: double
            +Invoice(o:Order, receiptPath:String, paymentType:Invoice.PaymentType, total:double, amountPaid:double)
            +Invoice(csv:String[])
            +toCsv(): String[]
            +getReceipt(): String
            +getTotal(): double
            +getAmountPaid(): double
        }

        enum sg.edu.ntu.scse.cz2002.features.Invoice.PaymentType [[../sg/edu/ntu/scse/cz2002/features/Invoice.PaymentType.html]] {
            {static} +PAYMENT_CASH
            {static} +PAYMENT_CARD
            {static} +PAYMENT_NETS
            {static} +PAYMENT_EZLINK
            -s: String
            -PaymentType(s:String)
            +toString(): String
        }

        class Table [[../sg/edu/ntu/scse/cz2002/features/Table.html]] {
            -tableNum: int
            -isReserved: boolean
            +Table(num:int, res:boolean, seats:int, state:int)
            +Table(csv:String[])
            +toCsv(): String[]
            +setTableNum(tableNum:int): void
            +getTableNum(): int
            +getNumSeatsInt(): int
            +setReserved(reserved:boolean): void
            +checkReserved(): boolean
            {static} +getTableByNumber(tableNum:int): Table
            {static} +getVacantTablesByNumPax(numPax:int, bookedTables:ArrayList<Table>): ArrayList<Table>
        }

        enum sg.edu.ntu.scse.cz2002.features.Table.TableState [[../sg/edu/ntu/scse/cz2002/features/Table.TableState.html]] {
            {static} +TABLE_VACATED
            {static} +TABLE_OCCUPIED
            {static} +TABLE_RESERVED
            {static} +TABLE_STATE_UNKNOWN
        }

        enum sg.edu.ntu.scse.cz2002.features.Table.TableSeats [[../sg/edu/ntu/scse/cz2002/features/Table.TableSeats.html]] {
            {static} +TWO_SEATER
            {static} +FOUR_SEATER
            {static} +EIGHT_SEATER
            {static} +TEN_SEATER
            {static} +UNKNOWN_SEATER
        }

        OrderItem +-- sg.edu.ntu.scse.cz2002.features.OrderItem.OrderItemType

        interface sg.edu.ntu.scse.cz2002.util.ICsvSerializable {
            {abstract} +toCsv(): String[]
        }
        sg.edu.ntu.scse.cz2002.util.ICsvSerializable <|.. Reservation

        Reservation +-- sg.edu.ntu.scse.cz2002.features.Reservation.ReservationSession

        sg.edu.ntu.scse.cz2002.util.ICsvSerializable <|.. Order

        Order +-- sg.edu.ntu.scse.cz2002.features.Order.OrderState

        Order <|-- Invoice

        sg.edu.ntu.scse.cz2002.util.ICsvSerializable <|.. Invoice

        Invoice +-- sg.edu.ntu.scse.cz2002.features.Invoice.PaymentType

        sg.edu.ntu.scse.cz2002.util.ICsvSerializable <|.. Table

        Table +-- sg.edu.ntu.scse.cz2002.features.Table.TableState

        Table +-- sg.edu.ntu.scse.cz2002.features.Table.TableSeats

        OrderItem --> sg.edu.ntu.scse.cz2002.features.OrderItem.OrderItemType: itemType

        Reservation --> sg.edu.ntu.scse.cz2002.features.Reservation.ReservationSession: resvSession

        Order --> sg.edu.ntu.scse.cz2002.features.Order.OrderState: orderState

        Order --> Table: table

        Invoice --> sg.edu.ntu.scse.cz2002.features.Invoice.PaymentType: paymentType

        Table --> sg.edu.ntu.scse.cz2002.features.Table.TableState: state

        Table --> sg.edu.ntu.scse.cz2002.features.Table.TableSeats: numSeats

    }


    center footer UMLDoclet 1.1.3, PlantUML 1.2018.12
@enduml
